PathFileType	4	(X/Y/Z)	C:/Users/opensim2020/Desktop/walking_exp_matlab/subject02_walking14_straight_02.trc	
DataRate	CameraRate	NumFrames	NumMarkers	Units	OrigDataRate	OrigDataStartFrame	OrigNumFrames	
100.00	100.00	8	41	mm	100.00	840	121	
Frame#	Time	LFHD			RFHD			LBHD			RBHD			C7			T10			CLAV			STRN			RBAK			LSHO			LUPA			LELB			LFRM			LWRA			LWRB			LFIN			RSHO			RUPA			RELB			RFRM			RWRA			RWRB			RFIN			LASI			RASI			LPSI			RPSI			LTHI			LKNE			LTIB			LANK			LHEE			LTOE			RTHI			RKNE			RTIB			RANK			RHEE			RTOE			*39			*40			
		X1	Y1	Z1	X2	Y2	Z2	X3	Y3	Z3	X4	Y4	Z4	X5	Y5	Z5	X6	Y6	Z6	X7	Y7	Z7	X8	Y8	Z8	X9	Y9	Z9	X10	Y10	Z10	X11	Y11	Z11	X12	Y12	Z12	X13	Y13	Z13	X14	Y14	Z14	X15	Y15	Z15	X16	Y16	Z16	X17	Y17	Z17	X18	Y18	Z18	X19	Y19	Z19	X20	Y20	Z20	X21	Y21	Z21	X22	Y22	Z22	X23	Y23	Z23	X24	Y24	Z24	X25	Y25	Z25	X26	Y26	Z26	X27	Y27	Z27	X28	Y28	Z28	X29	Y29	Z29	X30	Y30	Z30	X31	Y31	Z31	X32	Y32	Z32	X33	Y33	Z33	X34	Y34	Z34	X35	Y35	Z35	X36	Y36	Z36	X37	Y37	Z37	X38	Y38	Z38	X39	Y39	Z39	X40	Y40	Z40	X41	Y41	Z41	

31	0.300	-972.00677	248.62230	1743.86780	-1115.29785	259.91833	1730.06812	-956.20398	382.42438	1676.43005	-1098.35071	405.94345	1662.23083	-1019.71582	449.80807	1537.41174	-1021.71820	500.59802	1260.48596	-1024.23633	308.74271	1471.60754	-1039.33704	255.57545	1301.23511	-1075.84387	515.52216	1360.62769	-848.66052	360.94864	1512.46838	-763.35651	358.39886	1312.00073	-748.59583	353.74030	1170.92102	-737.78900	330.62100	1040.86169	-775.29919	267.24689	920.06183	-736.71478	309.05264	919.87756	-732.38196	283.19510	859.76154	-1210.05310	401.74100	1504.26758	-1304.91553	434.56723	1323.45593	-1350.28174	404.79590	1182.86169	-1369.26428	345.73663	1075.49268	-1345.91968	268.49585	965.29413	-1383.81104	308.56567	950.82666	-1381.12952	256.02789	899.80725	-907.84546	270.61972	998.96820	-1155.71838	289.92282	989.36865	-966.08813	480.44327	1047.74951	-1081.97351	496.60345	1046.89331	-866.50800	333.56992	677.15417	-905.86133	363.75037	477.94208	-906.09259	429.73596	293.65244	-954.69452	445.31470	73.28605	-1000.08997	489.11172	47.24939	-970.64020	289.70560	35.64830	-1242.60413	323.17075	688.47260	-1230.90845	280.92108	491.38791	-1219.74561	394.10986	345.21002	-1175.22913	485.10699	178.37605	-1108.46143	521.22375	136.33424	-1227.89636	387.43701	64.88106	-1052.46460	352.27744	1817.90784	-3356.79004	2845.97900	1034.33337 
32	0.310	-973.50739	235.39067	1743.63245	-1116.50610	246.72665	1729.64453	-957.13000	369.53113	1676.48608	-1099.76575	393.02652	1662.19995	-1020.89771	436.60529	1537.27222	-1022.87158	487.74930	1260.49585	-1024.93140	295.61551	1471.35376	-1039.38049	242.59491	1300.76855	-1077.10608	502.45966	1360.60779	-849.55817	348.11258	1512.41846	-764.17322	341.76080	1312.27588	-749.24023	332.94736	1171.04895	-740.15576	304.19843	1041.40820	-779.49414	236.27061	924.55597	-740.78552	278.17236	921.81830	-736.97516	248.83987	863.19275	-1211.11316	387.75577	1503.36511	-1305.51941	422.77875	1322.79980	-1349.57104	395.75839	1181.38928	-1367.62134	339.64645	1072.33447	-1343.59717	265.95618	959.83569	-1382.03406	305.94650	946.71295	-1378.12891	255.43529	893.53992	-906.90692	260.46332	997.30682	-1154.39319	275.63245	988.84375	-968.47888	468.87134	1048.09534	-1084.40027	483.59894	1047.22754	-867.03314	326.39001	676.53760	-906.09888	360.32294	477.53424	-906.21210	427.44583	293.80457	-954.98035	445.10764	73.48853	-1000.61920	489.65594	47.93519	-970.59613	289.59686	35.58751	-1243.49951	305.07578	689.60815	-1230.50806	259.80685	492.44873	-1221.00232	365.40143	339.88843	-1177.76038	447.60095	168.12199	-1111.51196	481.90869	123.48335	-1229.96704	342.59021	61.34672	-1053.73523	339.25308	1817.55225	-3356.98926	2846.05151	1034.25427 
33	0.320	-974.55139	222.24979	1743.24573	-1117.45850	233.65619	1729.07361	-958.29303	356.33115	1675.91528	-1100.75903	379.81012	1661.53979	-1022.05627	423.30927	1536.74780	-1024.07227	474.79822	1260.15527	-1025.66455	282.47745	1470.70325	-1039.41016	229.63788	1299.96472	-1078.55420	489.56183	1360.44226	-850.41711	335.07990	1512.07788	-764.98529	325.19693	1312.27771	-749.84277	312.31122	1171.09412	-742.49554	278.97568	1042.32056	-783.86871	205.35866	929.40051	-744.89996	246.76254	923.93378	-741.89246	214.95927	866.99902	-1212.53650	373.66058	1502.52148	-1306.20325	411.02271	1321.95300	-1348.91064	386.68460	1179.77014	-1366.37891	333.53207	1069.40894	-1341.32910	263.60977	954.45734	-1380.16736	303.48831	942.58563	-1375.29834	254.93341	887.49634	-905.94965	249.80013	995.48444	-1153.38293	261.74173	988.02271	-970.75214	457.00671	1047.97021	-1087.04675	470.62189	1047.31580	-867.67914	319.16965	675.83264	-906.40472	356.80179	477.00687	-906.48224	425.38138	293.86734	-955.31281	444.89035	73.66769	-1000.78979	489.44080	47.84919	-970.68842	289.24994	35.40117	-1244.30774	287.23886	690.58374	-1230.14734	239.24255	493.07986	-1222.19568	336.78845	334.49814	-1180.61914	409.51617	157.85738	-1115.04053	441.98279	110.92725	-1232.13977	297.28326	58.45943	-1054.94702	326.21863	1816.92139	-3356.97095	2846.05518	1034.27344 
34	0.330	-975.80884	209.22487	1742.58911	-1118.54736	220.45253	1728.12341	-959.29340	343.26901	1675.43262	-1101.75134	366.52744	1660.56665	-1023.21924	409.96503	1536.00928	-1025.41785	461.92905	1259.62390	-1026.57886	269.46048	1469.64392	-1039.58191	216.60211	1298.78186	-1079.16980	475.55637	1359.43311	-851.45917	321.83710	1511.34839	-765.84668	308.50980	1312.23486	-750.36304	291.94452	1171.12769	-744.81940	251.90388	1043.79651	-787.85864	174.98152	934.87708	-749.01099	215.90504	926.79340	-746.84906	181.14384	871.58801	-1213.31592	359.45056	1501.17139	-1306.88281	399.25424	1320.99902	-1348.42407	377.60794	1178.16699	-1365.09155	327.53848	1066.14172	-1338.93054	261.38736	948.82349	-1378.42017	301.06931	938.47772	-1372.65710	254.49968	881.67017	-905.02893	238.90605	993.71283	-1152.88330	247.66344	987.14069	-973.16162	445.15332	1047.54456	-1089.78711	457.61386	1047.11243	-868.42719	311.72070	674.73358	-906.83893	353.20865	476.44324	-906.89514	423.37473	293.98862	-955.63104	444.66467	73.81299	-1001.47498	489.44031	48.54704	-970.53070	289.34695	35.41011	-1245.11682	269.71643	691.24506	-1229.80713	219.23415	493.22446	-1223.62866	308.09619	328.90921	-1184.00781	370.79346	148.12466	-1119.13367	401.45746	99.03270	-1234.31458	251.90930	56.08691	-1056.39807	313.06229	1816.10168	-3357.01563	2846.01758	1034.10364 
35	0.340	-976.65009	196.22412	1741.89954	-1119.93030	207.15710	1726.88171	-960.43506	330.09628	1674.69165	-1102.83667	353.25946	1659.32654	-1024.33740	396.53799	1535.08167	-1026.98669	448.97552	1258.80640	-1027.45056	255.95168	1468.49536	-1039.91650	203.49677	1297.38477	-1081.53577	463.17126	1359.17346	-852.38068	308.60892	1510.64050	-766.74860	291.79706	1312.02014	-750.84467	271.95035	1171.20642	-747.01648	226.42197	1045.34949	-792.10724	145.06175	940.66608	-753.26886	184.53696	930.19135	-751.93451	148.24725	876.67377	-1215.41357	345.33517	1500.12024	-1307.28308	387.43988	1319.64233	-1347.61328	368.43552	1176.16272	-1363.84424	321.49631	1062.93811	-1336.92212	258.94742	944.00250	-1376.98303	298.62964	934.64996	-1370.20020	254.12843	876.14435	-904.23975	228.01199	991.67206	-1152.76563	233.53091	986.01123	-975.79224	433.45984	1046.81213	-1092.51929	444.34195	1046.47986	-869.04645	304.76804	673.98529	-907.34241	349.62213	475.90286	-907.36047	421.57492	294.23355	-955.94885	444.51120	74.00343	-1001.85596	489.28586	48.92855	-970.46497	289.25870	35.33419	-1246.02380	252.60477	691.60175	-1229.54370	199.90125	493.03778	-1225.37830	279.48880	323.39716	-1187.96204	331.61264	138.78224	-1123.45593	359.90707	87.76723	-1236.56592	206.40988	54.59889	-1057.81152	299.89838	1814.96399	-3360.34473	2845.15356	1034.28125 
36	0.350	-977.80939	182.92682	1740.81421	-1120.94324	193.94775	1725.51868	-961.72156	316.56137	1673.37415	-1104.22644	339.87610	1658.00732	-1025.47046	382.98914	1533.83105	-1028.65466	436.03470	1257.68982	-1028.37927	242.58191	1466.94373	-1040.31738	190.30750	1295.61658	-1082.88220	449.89371	1358.14783	-853.49768	295.16046	1509.61890	-767.65710	275.03690	1311.81799	-751.25085	252.20708	1171.21643	-748.94794	200.98285	1047.35034	-796.34827	115.89463	946.99640	-757.35663	154.31798	934.18402	-757.19470	114.85217	882.18127	-1216.10571	330.97812	1498.19641	-1308.06433	375.65701	1318.43335	-1347.03748	359.26575	1174.26013	-1362.71350	315.54001	1059.63013	-1334.76123	256.96683	938.67914	-1375.38574	296.30750	930.66400	-1368.04749	253.75398	870.89355	-903.60895	217.40407	989.47180	-1152.97607	219.44514	984.62012	-978.43909	421.60519	1045.60413	-1095.15723	430.34317	1045.14771	-869.89124	297.59100	672.80670	-907.66736	346.02194	475.46661	-907.98846	419.90689	294.60876	-956.32507	444.33813	74.28572	-1002.23145	489.02060	49.25356	-970.39178	289.15631	35.29234	-1246.99792	235.78378	691.55524	-1229.23108	181.17030	492.35291	-1227.26038	250.92285	317.90018	-1191.94153	291.96295	130.18732	-1127.89856	317.84949	77.13228	-1238.84375	160.89964	54.01182	-1059.22229	286.68939	1813.59595	-3360.27051	2845.23169	1034.38159 
37	0.360	-979.04834	169.71411	1739.43311	-1122.11780	180.57704	1723.81409	-962.66626	303.39069	1671.94788	-1105.31384	326.57874	1656.20325	-1026.59473	369.49078	1532.32214	-1030.45166	422.95313	1256.31592	-1029.33801	229.10983	1465.19104	-1040.89771	177.12587	1293.65100	-1083.62378	436.34695	1356.61719	-854.78009	281.50110	1508.38000	-768.43463	258.54797	1311.48242	-751.93890	232.21172	1170.96973	-751.35364	176.23845	1049.22070	-800.38605	86.19176	953.97754	-761.43646	124.44902	938.73859	-762.40686	82.65273	888.58447	-1217.42224	316.76367	1496.47375	-1308.34546	363.86060	1316.79480	-1346.51660	350.02881	1172.35779	-1361.65991	309.51450	1056.52856	-1332.90295	254.84064	933.74310	-1374.01990	293.69193	927.06799	-1366.03088	253.28961	865.82037	-903.33575	205.82852	987.45465	-1153.51404	205.31860	983.03949	-981.23743	409.71225	1043.94971	-1097.94055	417.07043	1043.58777	-870.61041	290.95438	672.06329	-908.39288	342.12076	474.92938	-908.74829	418.16125	295.00070	-956.71356	444.20892	74.54206	-1002.82825	489.08438	49.50183	-970.30945	289.00751	35.23937	-1248.08533	219.26131	691.03339	-1228.87329	163.17479	491.25952	-1229.26672	222.51752	312.62317	-1196.00647	252.05000	122.23821	-1133.40918	275.53156	67.36429	-1241.21094	115.60018	54.49223	-1060.62830	273.45905	1812.04773	-3356.99561	2845.95825	1034.30872 
38	0.370	-980.65015	156.22455	1737.65771	-1123.47717	167.10246	1721.84485	-963.55371	290.14371	1670.02686	-1106.59607	313.27237	1654.17737	-1027.75525	355.90189	1530.50513	-1032.38086	409.84393	1254.69824	-1030.42676	215.72333	1463.11365	-1041.64844	163.72661	1291.25720	-1085.27344	423.91254	1355.18152	-856.05664	267.71814	1506.93799	-769.26935	242.24493	1310.88000	-752.03021	213.36880	1170.84277	-753.50861	151.77733	1051.52307	-804.65289	58.26928	961.13409	-765.89392	94.19373	943.30188	-768.04999	50.66757	895.37445	-1218.52673	302.64493	1494.61328	-1309.10449	352.07730	1315.24243	-1345.93567	340.76321	1170.23987	-1360.32849	303.40738	1053.13086	-1331.20947	252.54170	929.20880	-1372.91638	291.18024	923.56702	-1364.36121	252.69792	861.05115	-903.40845	194.42511	985.35510	-1154.31091	191.17604	981.19348	-984.07709	397.69510	1041.77747	-1100.61011	403.52252	1041.48914	-871.38507	283.99850	671.04047	-909.24066	337.91034	474.37033	-909.54724	416.16409	295.50113	-957.17047	443.91605	74.93333	-1003.01239	488.58380	49.92854	-970.22931	288.85574	35.17456	-1249.37634	202.97398	689.95850	-1228.55713	145.72380	489.71176	-1231.57349	194.40550	307.70474	-1200.28992	212.05635	115.20800	-1138.40894	233.09569	58.66138	-1243.70044	70.84476	56.26192	-1062.24719	260.06973	1810.36414	-3357.27686	2846.03613	1034.44348 
